<?xml version="1.0" encoding="UTF-8" standalone="no"?>
<!-- Created with Inkscape (http://www.inkscape.org/) -->

<svg
  width="387.22223"
  height="512"
  viewBox="0 0 387.22223 512"
  version="1.1"
  id="svg1"
  xml:space="preserve"
  xmlns="http://www.w3.org/2000/svg"
  xmlns:svg="http://www.w3.org/2000/svg">
  <style>
    path {
      fill: #191724;
    }

    @media (prefers-color-scheme: dark) {
      path {
        fill: #ebbcba;
      }
    }
  </style>
  <defs
     id="defs1" /><g
     id="layer1"
     transform="translate(-62.388893)">
     <path
       style="fill-opacity:1;stroke-width:1.66185"
       d="m 177.99465,507.11016 c 36.53438,-12.0453 64.69663,-26.84414 129.47476,-68.03708 47.37863,-30.12846 62.01721,-37.64635 79.52205,-40.83981 12.54554,-2.28873 13.92497,-2.79369 15.44418,-5.65371 1.74412,-3.28344 1.12869,-13.66768 -1.54248,-26.02596 -2.67675,-12.3841 -1.38141,-33.68564 2.61226,-42.95767 2.61509,-6.07143 2.96252,-8.40715 3.10633,-20.88369 0.11712,-10.16766 0.65454,-15.13413 1.94547,-17.98107 0.98096,-2.16334 6.32945,-8.92781 11.88554,-15.03217 7.34003,-8.06432 11.53912,-13.90221 15.35843,-21.35249 5.01868,-9.7899 5.29331,-10.81293 6.0715,-22.61571 0.69415,-10.52827 1.29457,-13.27147 4.04772,-18.4934 2.63755,-5.00267 3.30457,-7.82765 3.62322,-15.34524 0.4952,-11.68251 -1.70296,-19.57798 -7.66845,-27.54416 -3.84369,-5.13275 -4.48255,-6.7907 -4.48332,-11.63502 -0.001,-7.69381 -2.81794,-20.6526 -6.11484,-28.1327 -1.49839,-3.39956 -5.20208,-8.83444 -8.23045,-12.07751 -6.83962,-7.32457 -7.25553,-8.13341 -12.47945,-24.269419 C 406.69692,76.278786 402.73383,68.502486 394.58884,56.881065 390.87058,51.57576 382.42307,46.062717 369.1627,40.287323 362.74979,37.494265 354.43555,32.904521 350.68662,30.087892 335.11218,18.386642 322.42529,10.892911 315.03681,9.0307081 308.30531,7.3340902 306.66911,7.3257252 295.17443,8.9291824 281.17536,10.88198 279.27049,10.563139 271.05574,4.89213 261.34263,-1.813268 249.474,-1.6307738 233.37491,5.4715201 c -13.76116,6.0708869 -18.123,6.6393119 -25.23874,3.2890562 -3.19593,-1.5047239 -7.51821,-2.7358635 -9.60501,-2.7358635 -4.32423,0 -6.01952,1.5688593 -12.97931,12.0113322 -2.54918,3.824778 -5.26732,7.349406 -6.04034,7.832501 -0.77301,0.483095 -4.60738,1.213106 -8.52081,1.622269 -4.26273,0.445671 -8.30401,1.614832 -10.08026,2.916253 -4.17535,3.059237 -7.15332,9.713149 -7.91404,17.683002 l -0.65104,6.820639 -7.84019,0.834746 c -17.95893,1.912087 -36.40568,10.701238 -48.39672,23.059156 -8.195518,8.446267 -9.808186,13.109393 -9.828012,28.417969 -0.01656,12.72637 0.06372,13.14088 4.131078,21.35252 2.281314,4.60582 6.473387,11.02335 9.31571,14.26121 l 5.167854,5.88697 -5.30733,6.92058 c -5.767032,7.52003 -10.455293,17.6539 -10.497445,22.69073 -0.01713,2.04338 -1.080346,4.04674 -2.982199,5.6191 -9.465155,7.82529 -14.940753,13.79844 -17.74242,19.35454 -2.834329,5.62089 -3.26863,7.99878 -4.160211,22.77795 -0.547522,9.07604 -1.274228,20.29516 -1.614895,24.93143 -0.486812,6.62508 -0.144341,9.87273 1.60006,15.17151 1.22069,3.70809 2.564799,11.54629 2.986892,17.41823 1.697281,23.6119 7.852316,35.51958 22.124025,42.80158 7.347414,3.74895 8.155433,4.93477 9.123472,13.38924 1.124463,9.82069 2.719381,14.11684 8.243741,22.20563 2.84559,4.16653 6.35414,10.59315 7.79679,14.28139 4.09065,10.45808 7.21632,14.36984 14.66526,18.35349 3.70492,1.98139 7.04175,4.40141 7.41518,5.37787 0.37345,0.97643 0.67897,4.70498 0.67897,8.28567 0,6.38367 -0.15479,6.70436 -7.95367,16.48437 -4.37451,5.48574 -11.8662,15.53695 -16.6482,22.33604 -4.78201,6.7991 -12.03913,16.5805 -16.126955,21.73647 -4.08784,5.15598 -7.432438,10.10353 -7.432438,10.99458 0,4.27857 6.055691,13.07169 13.326483,19.35063 11.30053,9.75895 16.21454,10.18254 31.22363,2.69146 l 8.14915,-4.06726 5.85121,5.66948 c 11.10056,10.7558 9.34601,10.54719 30.38047,3.61217 z m -25.59312,-11.12065 c -4.43628,-4.31617 -8.6679,-7.84758 -9.40359,-7.84758 -0.73568,0 -5.85358,2.27572 -11.37311,5.05717 -11.93246,6.01312 -16.26578,6.43001 -20.4416,1.96668 -1.59028,-1.69977 -4.22392,-4.022 -5.85253,-5.16052 -1.62863,-1.13854 -3.76822,-3.76828 -4.75468,-5.8439 -1.778724,-3.74264 -1.761057,-3.81386 2.1356,-8.60623 2.16103,-2.65779 9.87616,-13.17669 17.14473,-23.37532 7.26858,-10.19865 16.34536,-22.33584 20.17061,-26.97159 l 6.95505,-8.42864 -0.75358,-10.27888 c -0.88975,-12.13632 -2.39312,-15.00481 -9.86362,-18.8204 -7.29889,-3.72794 -10.08986,-7.08699 -13.3243,-16.03646 -1.52734,-4.226 -4.79416,-10.36658 -7.2596,-13.64575 -5.87982,-7.82049 -7.66816,-12.35566 -7.71638,-19.5686 -0.0219,-3.26486 -0.75998,-7.20042 -1.64036,-8.74566 -2.12132,-3.72342 -2.09035,-5.11216 0.0739,-3.30997 2.78813,2.32178 4.60112,6.76828 5.43826,13.33775 0.96609,7.5814 2.08853,9.72831 6.20203,11.86267 1.78613,0.92677 3.58533,2.753 3.99822,4.0583 0.4483,1.41726 3.07452,3.43422 6.51954,5.00704 6.42398,2.93286 10.71324,3.26238 37.12965,2.85236 17.67261,-0.2743 27.19878,1.05962 38.59458,5.40432 l 5.78917,2.20716 -0.70795,-3.23428 c -0.69785,-3.18796 -0.65603,-3.21933 2.92157,-2.1898 2.52693,0.72716 4.11244,0.64234 5.21906,-0.27917 0.87423,-0.72801 3.35691,-1.20422 5.51705,-1.05825 2.72872,0.18441 6.06625,-0.91416 10.93431,-3.59902 11.51757,-6.35225 22.47797,-9.80378 33.41273,-10.52192 10.07668,-0.66178 12.03216,-1.49769 9.8044,-4.19103 -1.69308,-2.04692 0.15627,-3.13531 3.77783,-2.2233 2.35523,0.59313 2.92031,0.23622 3.53846,-2.23506 0.70379,-2.81357 0.97608,-2.90891 6.2887,-2.20179 l 5.55309,0.73915 -0.74041,-3.96007 c -0.40722,-2.17804 -0.2834,-4.24347 0.27517,-4.58984 0.55854,-0.34638 5.01394,-1.13797 9.90084,-1.75908 4.88688,-0.62109 12.0662,-2.15448 15.95401,-3.40748 3.88782,-1.25302 9.10951,-2.82957 11.60375,-3.50347 l 4.535,-1.22529 -2.57738,-2.75277 c -3.56256,-3.805 -12.09323,-7.57051 -23.8379,-10.52227 -11.5351,-2.89908 -16.42394,-4.55583 -25.48974,-8.63807 -7.00806,-3.15567 -7.93569,-4.32302 -4.34418,-5.46677 1.89632,-0.60392 2.04454,-1.07809 0.96791,-3.0966 -2.48283,-4.65491 -11.30883,-13.10988 -14.79161,-14.16981 -4.13222,-1.2576 -33.61212,-2.6091 -36.09113,-1.6546 -2.70643,1.04208 -4.96575,6.59098 -4.96575,12.19591 0,5.72488 -1.17024,8.64829 -5.20082,12.99227 -2.53492,2.73203 -2.59612,3.11383 -1.08098,6.74291 0.88336,2.11579 2.90384,5.06697 4.48997,6.55818 2.20733,2.07525 2.59223,3.06392 1.6407,4.21433 -0.68375,0.82663 -1.05546,1.51334 -0.82604,1.52596 13.90504,0.7651 17.13766,1.13305 18.05677,2.05526 1.17795,1.18192 -5.44945,3.52293 -10.0065,3.5346 -1.34594,0.003 -3.866,0.59607 -5.60015,1.31691 -1.73416,0.72087 -7.1851,1.44783 -12.11322,1.61549 -4.92814,0.16767 -12.48833,0.71574 -16.80044,1.21794 -9.67766,1.12709 -24.52016,-0.0573 -32.89968,-2.62522 -3.46574,-1.06209 -10.08143,-1.96476 -14.70156,-2.00592 -9.51101,-0.0848 -17.08565,-2.99377 -17.75228,-6.81774 -0.49469,-2.83781 -4.30249,-7.04546 -8.23276,-9.09732 -7.19127,-3.75425 -16.32064,-0.25118 -15.1642,5.81874 0.3981,2.08963 -0.26157,3.13981 -2.98504,4.75214 -3.06556,1.81484 -4.26741,1.91518 -9.759726,0.81477 -7.36169,-1.47494 -10.945885,-3.61422 -15.007619,-8.95742 -3.196626,-4.20518 -6.167404,-12.67954 -6.096484,-17.39062 0.04317,-2.86421 0.06852,-2.85483 1.555487,0.57233 0.831407,1.91631 2.323717,3.79688 3.316264,4.17904 1.036927,0.39925 1.804586,1.97328 1.804586,3.70019 0,3.95279 10.00771,14.31107 12.791252,13.23931 1.030166,-0.39665 3.128378,-3.20685 4.66268,-6.24488 1.5343,-3.03804 4.53499,-7.81797 6.66821,-10.62209 2.13323,-2.80412 3.87858,-5.81825 3.87858,-6.69805 0,-2.55528 2.93853,-1.8507 4.91696,1.17898 0.99796,1.52824 4.65537,4.68897 8.12758,7.02385 11.89014,7.99549 39.89349,22.78819 43.13923,22.78819 3.55699,0 3.45684,-2.41364 -0.25986,-6.26125 -2.02918,-2.10068 -3.47039,-4.0392 -3.20267,-4.30782 0.26772,-0.26863 4.01335,0.80143 8.32366,2.37788 4.3103,1.57647 12.25313,3.91478 17.65075,5.19626 8.58411,2.03805 10.4733,2.15303 15.07656,0.91767 2.89449,-0.77677 5.94568,-1.98104 6.78043,-2.67617 2.91772,-2.42967 4.89096,-7.68675 4.15214,-11.06203 -0.6712,-3.0662 -1.07637,-3.2894 -5.97122,-3.2894 -3.75569,0 -6.42465,-0.80012 -9.37183,-2.80954 -2.26637,-1.54526 -4.92019,-2.80956 -5.89737,-2.80956 -0.97719,0 -4.26325,-1.26428 -7.30238,-2.80953 -3.37143,-1.71421 -7.42165,-2.80953 -10.38891,-2.80953 -3.58872,0 -6.60201,-1.05056 -11.49781,-4.00864 -6.76292,-4.08619 -8.3065,-5.58078 -8.3369,-8.0724 -0.0234,-1.91343 3.55055,-1.77229 6.20893,0.24522 1.19577,0.90749 3.93818,1.68827 6.09423,1.73505 2.15606,0.0468 5.68414,0.77268 7.8402,1.6131 4.92595,1.92012 16.90449,6.80324 23.52061,9.5883 7.55771,3.18142 10.56572,3.56266 12.97925,1.64497 2.08016,-1.65282 2.08195,-1.74017 0.0629,-3.06631 -1.14299,-0.75076 -3.85837,-2.75576 -6.03415,-4.45551 -2.17579,-1.69978 -5.21321,-3.0905 -6.74983,-3.0905 -1.53664,0 -4.61741,-1.13308 -6.84617,-2.51794 -2.75081,-1.70923 -6.60605,-2.7287 -12.00348,-3.17414 -5.3608,-0.44244 -9.00967,-1.4019 -11.20028,-2.94515 -1.78702,-1.25893 -5.07823,-2.8839 -7.31381,-3.61107 -4.71006,-1.53203 -8.27737,-5.00293 -7.10243,-6.91047 1.47022,-2.38688 12.88889,-0.70403 17.67808,2.60533 4.05786,2.80399 13.5618,5.21603 14.97301,3.80002 0.36299,-0.36421 -0.97078,-1.56299 -2.96391,-2.66396 -1.99314,-1.10099 -5.62641,-3.4225 -8.07391,-5.15894 -3.63807,-2.58108 -4.20568,-3.45256 -3.11084,-4.77621 1.83867,-2.22296 6.24713,-2.02893 13.89609,0.61161 6.44533,2.22501 6.45998,2.22501 5.7755,0 -0.37744,-1.22687 -0.99703,-3.24211 -1.37688,-4.47831 -0.51813,-1.68623 -0.16846,-2.25697 1.40004,-2.28502 6.46339,-0.11553 -15.37182,-10.64167 -24.75067,-11.93152 -2.79371,-0.38423 -5.07948,-1.08318 -5.07948,-1.55323 0,-0.47004 1.76405,-2.40873 3.92011,-4.30817 4.79377,-4.22322 4.89575,-5.37624 0.56001,-6.33175 -1.84804,-0.40726 -3.34901,-1.33245 -3.33549,-2.05596 0.0554,-2.96194 4.46279,-10.61789 8.84434,-15.36319 9.70329,-10.50885 17.94048,-21.49332 21.39004,-28.52408 2.50805,-5.11181 4.05445,-7.09316 5.19369,-6.6545 0.89224,0.34355 2.73753,-0.42665 4.10063,-1.71155 4.0143,-3.78398 10.28541,-5.81489 17.95544,-5.81489 10.94276,0 16.89446,3.39822 22.63513,12.92388 5.40736,8.97263 10.17078,11.83412 25.16623,15.118 11.1178,2.4347 13.53447,2.16893 10.5334,-1.15842 -1.75188,-1.94238 -1.75777,-2.16951 -0.073,-2.81821 5.40045,-2.07936 -1.33275,-12.72966 -13.26039,-20.97476 -8.55178,-5.91148 -11.25096,-6.70457 -10.06571,-2.95753 0.41417,1.30933 0.32212,2.17009 -0.20454,1.9128 -14.76076,-7.21122 -14.0786,-7.01888 -26.50956,-7.47449 -10.07643,-0.36931 -12.00557,-0.7213 -11.4803,-2.09477 0.34725,-0.90797 0.63137,-1.85208 0.63137,-2.09802 0,-1.35257 9.93263,-5.20786 14.91698,-5.78996 6.68984,-0.78125 10.758,-3.2518 10.80848,-6.56388 0.0602,-3.94601 -6.37983,-12.71829 -11.92928,-16.24955 -5.75418,-3.66153 -7.07601,-4.04261 -7.07601,-2.04002 0,0.72395 -0.79044,2.19266 -1.75654,3.2638 -1.46479,1.62406 -1.51833,2.33022 -0.3224,4.25169 0.78877,1.2673 1.20119,2.48173 0.91651,2.69875 -12.63999,9.63566 -15.58656,12.5603 -18.85672,18.7165 -3.98836,7.50823 -6.14063,9.3412 -17.95294,15.28942 -7.11811,3.58443 -8.4425,4.74496 -10.34841,9.06815 -1.2252,2.77915 -2.94692,4.95768 -3.91811,4.95768 -0.95287,0 -1.98905,0.98434 -2.3026,2.18744 -0.31354,1.2031 -1.36415,2.34095 -2.33466,2.5286 -0.97629,0.18874 -3.07339,3.56981 -4.6945,7.56878 -1.61145,3.97521 -3.46708,7.40731 -4.1236,7.6269 -1.91228,0.63957 -4.12513,-9.2642 -3.34537,-14.97245 0.79284,-5.80402 4.32573,-14.47004 7.20051,-17.6626 1.05451,-1.17107 4.33042,-3.35706 7.27982,-4.85778 2.94939,-1.50071 5.92837,-3.97463 6.61995,-5.49761 1.43764,-3.16596 2.32443,-3.42094 4.16373,-1.19721 1.02617,1.24063 1.98932,1.31081 4.57099,0.33305 2.70125,-1.02306 4.14744,-3.20505 8.3041,-12.52906 4.9198,-11.03582 9.76042,-18.59506 11.90749,-18.59506 0.58975,0 1.07229,0.75856 1.07229,1.68573 0,2.4765 1.43164,2.08474 6.16015,-1.68573 2.32547,-1.8543 5.38912,-3.37145 6.8081,-3.37145 5.02806,0 3.94199,-2.3226 -2.40255,-5.13795 -5.33142,-2.36576 -6.9605,-2.64261 -9.76921,-1.66018 -1.85395,0.64848 -4.54056,1.17904 -5.97024,1.17904 -1.61166,0 -3.56972,1.3246 -5.15299,3.48589 -1.40449,1.91724 -4.92906,4.69775 -7.83238,6.1789 -7.28219,3.71505 -12.81494,8.84023 -16.46404,15.25119 -1.69808,2.98327 -3.42277,5.08764 -3.83265,4.67639 -0.40986,-0.41126 -0.7452,-3.2404 -0.7452,-6.287 0,-6.58239 2.32994,-10.37819 9.5749,-15.59873 2.74202,-1.97581 4.98548,-4.07129 4.98548,-4.65662 0,-1.27549 -14.18688,0.054 -17.08045,1.60049 -1.07803,0.57622 -1.96006,2.05811 -1.96006,3.29311 0,4.59736 -5.77439,13.41958 -14.22896,21.73935 -4.79336,4.71693 -8.91406,7.97764 -9.15711,7.24602 -0.24305,-0.73162 2.41492,-6.93777 5.9066,-13.79147 7.40105,-14.52722 7.8313,-16.87401 2.91909,-15.92199 -1.84804,0.35816 -4.80883,0.93028 -6.57951,1.2714 -1.77068,0.34111 -4.21133,1.73183 -5.42365,3.0905 -3.06022,3.42959 -8.15736,13.02831 -8.15736,15.36154 0,1.06255 -0.97717,2.81923 -2.17149,3.90371 -2.00379,1.81956 -2.36902,1.83302 -4.72932,0.17421 -1.40681,-0.98872 -2.94972,-1.79765 -3.42866,-1.79765 -0.47895,0 -0.88437,2.90786 -0.90094,6.46192 l -0.0302,6.46196 -3.29983,-3.93335 c -1.81492,-2.16336 -3.3134,-4.6498 -3.32996,-5.52544 -0.0166,-0.87564 0.30151,-1.25932 0.70683,-0.85261 1.09279,1.09648 3.74316,-1.47746 3.74316,-3.6352 0,-1.02924 -2.56696,-4.38089 -5.70436,-7.44816 -6.43402,-6.29024 -13.367361,-15.95834 -16.030362,-22.35332 -2.564913,-6.15947 -2.384701,-22.249432 0.316021,-28.215021 1.128963,-2.493764 5.190321,-7.383111 9.025221,-10.865215 12.81081,-11.632353 28.0598,-17.702722 44.55495,-17.736629 9.84271,-0.02028 10.36457,-0.675353 11.62931,-14.598349 0.99538,-10.957677 2.85316,-13.513684 9.82212,-13.513684 9.91088,0 14.51597,-3.046163 21.66156,-14.328653 4.78923,-7.561934 6.24675,-8.189324 11.52783,-4.962195 7.68145,4.693919 14.32927,3.95874 31.12204,-3.441764 8.34749,-3.6787087 11.70998,-4.5717606 17.59922,-4.6742226 6.61835,-0.1151446 7.91475,0.26985 14.26011,4.2348276 9.20661,5.75288 13.92391,6.505638 27.73476,4.425725 15.295,-2.303426 19.26963,-1.305014 34.19687,8.590085 6.4518,4.276824 14.09238,9.587319 16.97908,11.801097 2.88669,2.213754 8.68283,5.581097 12.88033,7.482975 22.7569,10.311086 26.15614,12.732004 31.29165,22.285624 1.51092,2.810808 3.93867,6.755816 5.39499,8.766737 1.4563,2.010898 4.23804,8.838069 6.18161,15.171511 5.19168,16.917901 5.50488,17.534211 13.16898,25.913871 3.8698,4.23112 7.03602,8.55202 7.03602,9.602 0,1.04995 0.68385,2.90656 1.51967,4.12577 1.74425,2.54431 3.67545,13.08228 4.60381,25.1214 0.60847,7.89081 0.85517,8.49322 5.06257,12.36198 5.77942,5.31423 10.45497,14.21511 8.94962,17.0374 -0.60235,1.1293 -1.09518,3.58857 -1.09518,5.465 0,1.87645 -1.46865,6.33473 -3.26367,9.90728 -4.51055,8.97715 -5.70869,14.26303 -5.43679,23.98621 0.20178,7.21624 -0.16524,9.0475 -2.68884,13.41429 -1.60738,2.78145 -3.51828,6.94374 -4.24646,9.24955 -0.83502,2.64413 -5.53419,8.79915 -12.7246,16.66685 -14.42508,15.78377 -16.66838,20.99589 -15.69044,36.45542 0.73944,11.68915 -0.42403,17.1677 -5.14316,24.21807 -2.54076,3.79589 -3.03054,5.36855 -2.17279,6.97669 0.66452,1.24586 0.8201,6.65915 0.38907,13.5361 -0.57965,9.24787 -0.26906,13.69939 1.60909,23.06168 1.28005,6.38095 2.32737,12.81718 2.32737,14.30275 0,3.28151 -3.41003,5.61762 -9.52023,6.52202 -16.82381,2.49018 -34.76726,11.72116 -85.08803,43.77344 -41.73706,26.5848 -55.60402,34.70415 -80.11627,46.90949 -14.71949,7.32924 -41.477,18.17976 -53.62043,21.74375 l -6.01922,1.76657 z m -33.62968,-7.60401 c 2.02078,-1.71944 7.72746,-9.82618 31.17981,-44.29322 6.55174,-9.62884 6.6223,-9.81565 4.77603,-12.64292 -1.03068,-1.57834 -2.8932,-2.8697 -4.13894,-2.8697 -1.96618,0 -2.1714,0.50061 -1.5555,3.79465 0.64417,3.4454 -0.38002,5.4367 -11.12692,21.6335 -6.51002,9.81132 -14.56974,20.79762 -17.91048,24.41397 -5.55675,6.01521 -6.36951,6.51009 -9.54287,5.81076 -4.54364,-1.00134 -4.80803,1.98481 -0.38871,4.39042 3.99933,2.177 5.9319,2.1243 8.70758,-0.23746 z m 82.13524,-14.41201 c 10.25201,-4.08403 20.40407,-8.4598 22.56012,-9.7239 2.15606,-1.26411 10.22026,-4.92316 17.92046,-8.13127 11.60409,-4.83452 14.06489,-6.27283 14.37737,-8.40341 0.32966,-2.24757 0.0194,-2.48047 -2.46959,-1.85365 -2.72861,0.68715 -71.16448,29.05369 -74.6294,30.93374 -0.92403,0.50138 -1.84301,1.74237 -2.04216,2.75782 -0.66366,3.38335 5.12073,2.05435 24.2832,-5.57933 z m -33.42843,-14.31675 c 1.79208,-12.98287 2.12341,-18.14491 1.22267,-19.0487 -2.06341,-2.07039 -3.34048,0.42953 -4.48826,8.78599 -2.74806,20.00725 -2.775,34.5065 -0.055,29.62073 0.47432,-0.852 1.96861,-9.56311 3.32064,-19.35802 z m 99.25451,-21.70357 c 0.41114,-1.64366 -0.12475,-8.464 -1.19102,-15.15628 -1.13592,-7.1299 -1.6036,-13.68633 -1.12958,-15.83545 1.92114,-8.70993 0.071,-14.44054 -5.39561,-16.71254 -4.97327,-2.06696 -11.4685,0.10324 -22.38639,7.47953 -10.75352,7.26533 -31.34561,17.86497 -51.24433,26.37769 -14.53523,6.21821 -17.34234,7.90079 -16.65045,9.98049 0.25324,0.76119 3.19378,-0.10071 7.6902,-2.25414 4.00411,-1.9176 14.23664,-6.44892 22.73897,-10.06958 8.50234,-3.62067 21.60668,-9.91868 29.12076,-13.99561 12.83873,-6.96592 24.33927,-11.77829 28.14762,-11.77829 2.83359,0 3.97783,3.91888 3.82762,13.10914 -0.17954,10.98418 1.22914,27.26531 2.58503,29.87684 1.46996,2.83123 3.02568,2.42228 3.88718,-1.0218 z m 14.57952,-35.60402 c 1.75787,-2.0648 4.59331,-5.98411 6.30102,-8.70957 4.67889,-7.46746 7.56271,-11.70378 13.43851,-19.74111 4.80033,-6.56623 9.77726,-15.03467 9.77726,-16.63637 0,-0.33368 -0.92018,-0.60669 -2.04482,-0.60669 -2.19071,0 -5.81934,3.46899 -7.93489,7.58577 -0.91136,1.7735 -2.30622,2.52859 -4.67099,2.52859 -2.12782,0 -4.43385,1.06585 -6.25118,2.88933 -2.48864,2.49705 -2.78024,3.51285 -2.1477,7.48181 0.63847,4.00631 0.24114,5.3341 -3.1131,10.40304 -3.67186,5.54891 -9.67824,16.69509 -9.67824,17.96012 0,1.86347 3.56648,0.0842 6.32413,-3.15492 z m 21.84624,-5.5173 c 1.76726,-2.00882 4.84612,-5.88843 6.84192,-8.62134 4.2379,-5.80314 5.91522,-6.67539 6.74133,-3.50564 0.84646,3.2478 2.37505,2.85318 5.26343,-1.3588 1.37755,-2.00884 4.08393,-4.41099 6.01419,-5.33815 1.93026,-0.92716 5.30992,-4.09771 7.51032,-7.04571 6.43905,-8.62665 14.89191,-23.24259 14.97954,-25.90132 0.0683,-2.07179 -0.48987,-2.42689 -3.59013,-2.2841 -4.51752,0.20807 -6.06797,1.45898 -10.94383,8.8296 -2.10968,3.18912 -5.17186,6.40921 -6.80484,7.15576 -2.953,1.35003 -2.96558,1.33596 -2.32874,-2.60173 0.38441,-2.37685 0.14068,-4.26894 -0.60998,-4.73442 -1.97095,-1.22222 -8.15555,6.85293 -10.78017,14.07558 -1.3098,3.60438 -3.61692,8.27211 -5.12697,10.37274 -1.51003,2.10065 -4.4692,7.41554 -6.57591,11.8109 -2.10672,4.39537 -4.39954,8.34453 -5.09518,8.77591 -1.64771,1.02178 -1.63763,4.02311 0.0132,4.02311 0.70305,0 2.72423,-1.64356 4.4915,-3.65239 z m 33.40674,-11.66864 c 10.83139,-13.50973 21.30503,-29.70673 21.30503,-32.94726 0,-2.56812 -3.57287,-0.97624 -5.37223,2.39361 -1.04938,1.96526 -3.7206,5.63172 -5.93606,8.14765 -2.21545,2.51596 -6.71212,8.62019 -9.9926,13.565 -3.28049,4.94479 -6.94975,10.10266 -8.15391,11.46193 -2.11055,2.38239 -1.98575,5.95721 0.208,5.95721 0.58534,0 4.15913,-3.86016 7.94177,-8.57814 z m 17.11485,-5.1886 c 16.40238,-25.29163 18.54296,-29.49616 14.63171,-28.73972 -2.01162,0.38904 -27.24196,37.30351 -27.24196,39.85764 0,0.83876 0.99245,1.52501 2.20546,1.52501 1.57735,0 4.54062,-3.60069 10.40479,-12.64293 z m -180.03125,4.81411 c -0.60183,-0.97706 -31.26917,-11.27607 -33.57672,-11.27607 -1.63139,0 3.13112,4.633 6.67002,6.48866 6.10712,3.20228 15.59268,5.75155 21.62931,5.8129 3.55483,0.0361 5.67725,-0.37629 5.27739,-1.02549 z m 198.52972,-1.16643 c 5.18224,-3.17029 7.50343,-10.39501 4.6923,-14.6049 -0.96412,-1.44383 -1.42937,-1.3229 -3.24245,0.84287 -1.94306,2.32098 -4.55785,3.40922 -4.55785,1.89689 0,-0.34746 0.82044,-3.14855 1.82319,-6.22466 1.76848,-5.42507 1.62353,-7.51037 -0.43336,-6.23483 -0.5496,0.34081 -2.70724,4.0579 -4.79475,8.26019 -2.0875,4.20229 -4.94744,9.52692 -6.35542,11.83252 -1.40799,2.30559 -2.55997,4.70773 -2.55997,5.33812 0,2.11841 11.5058,1.29344 15.42831,-1.1062 z m 5.85223,-42.63397 c 0,-2.86865 -1.92803,-3.97281 -3.96916,-2.27313 -2.16993,1.80699 -2.05843,3.05372 0.32908,3.67976 3.42896,0.89909 3.64008,0.81752 3.64008,-1.40663 z m -41.5612,-51.6636 c 1.20145,-0.76339 0.62555,-1.59872 -2.5062,-3.6352 -5.18347,-3.37066 -5.27508,-5.45361 -0.23985,-5.45361 5.35433,0 5.63236,-1.29507 1.20281,-5.60287 -3.11858,-3.03288 -3.6993,-4.29814 -3.1765,-6.92097 0.58972,-2.95852 0.37742,-3.20959 -2.71362,-3.20959 -7.15109,0 -23.3001,-3.58173 -29.28705,-6.49563 -6.07862,-2.95853 -6.26918,-3.18816 -5.92591,-7.14127 0.30109,-3.4674 -0.15909,-4.45154 -3.04652,-6.51448 l -3.40116,-2.43004 -5.76651,3.89652 c -3.17155,2.14307 -10.11684,5.24967 -15.43396,6.90352 -15.32522,4.76682 -17.27133,5.53077 -17.12943,6.72418 0.0734,0.61812 6.31862,1.6324 13.87804,2.25398 15.14162,1.24503 15.48068,1.38763 39.34171,16.54861 10.33583,6.56724 16.89602,9.62464 23.42607,10.91782 6.48864,1.28498 8.94882,1.32126 10.77808,0.15897 z m 72.91066,-39.98005 c 2.19123,-2.6492 0.0311,-4.32623 -3.72635,-2.89285 -2.7815,1.06111 -4.00162,4.29146 -2.27518,6.02373 0.88438,0.88738 4.03923,-0.75844 6.00153,-3.13088 z m 3.81168,-14.16766 c 1.64029,-1.29461 3.91431,-4.2025 5.05335,-6.46194 2.50871,-4.97632 8.30221,-23.79283 7.55615,-24.5414 -0.70583,-0.70825 -15.43039,9.05608 -18.07024,11.98295 -1.84785,2.04875 -1.89898,2.60664 -0.48307,5.27194 0.93268,1.75568 1.50341,5.6772 1.38867,9.54153 -0.10712,3.60843 0.20289,6.56079 0.68899,6.56079 0.48605,0 2.22583,-1.05924 3.86615,-2.35387 z m -204.84555,-2.63838 c 14.4662,-4.14175 33.3186,-10.33645 45.92119,-15.08924 10.62582,-4.00729 25.26513,-4.18118 33.49396,-0.39789 6.45806,2.96916 7.69131,2.48489 3.93811,-1.54642 -4.12268,-4.42817 -11.18393,-8.1761 -17.76264,-9.42795 -3.86488,-0.73545 -7.25323,-2.29972 -9.75456,-4.50336 -4.84453,-4.26792 -7.57653,-4.31275 -9.29394,-0.15247 -0.73198,1.77314 -3.0612,4.90665 -5.17601,6.96334 -4.16957,4.05498 -5.13691,3.33374 -1.60508,-1.19672 3.28211,-4.21011 2.91611,-10.183 -0.84001,-13.70915 -3.70572,-3.47884 -9.46627,-6.51955 -12.3511,-6.51955 -1.70565,0 -2.35832,1.39536 -3.46077,7.39875 -2.43206,13.24388 -10.0353,21.01973 -16.82267,17.20458 -3.31818,-1.86513 -6.1145,-8.88571 -5.43531,-13.64611 0.26002,-1.82247 -0.0828,-3.0905 -0.8356,-3.0905 -1.84751,0 -6.96302,5.67564 -8.28804,9.19555 -2.14421,5.69608 2.2107,14.44625 9.41254,18.91229 2.14504,1.33019 3.90007,2.92318 3.90007,3.53997 0,1.96333 -6.98946,-0.26402 -13.61171,-4.33771 -7.93162,-4.87915 -11.43885,-4.71523 -11.94392,0.55822 -0.33912,3.54075 4.33138,13.72778 6.28234,13.70268 0.43604,-0.005 6.84096,-1.74181 14.23315,-3.85823 z m 153.45896,-10.31668 c -1.65871,-3.98329 -1.65432,-4.41787 0.0576,-5.67384 1.68138,-1.23362 1.51228,-1.889 -1.81804,-7.04592 -2.01952,-3.12719 -4.09098,-5.68581 -4.60326,-5.68581 -0.51226,0 -0.93138,1.51715 -0.93138,3.37146 0,2.62223 -0.4978,3.37144 -2.24008,3.37144 -1.23203,0 -2.24006,0.33155 -2.24006,0.73679 0,1.91147 12.2784,16.53712 13.14942,15.66318 0.23218,-0.23297 -0.38617,-2.36477 -1.37414,-4.7373 z M 221.22715,195.45409 c 0,-2.30845 -2.31874,-3.44268 -3.41141,-1.66874 -0.50649,0.8223 -0.6724,1.89854 -0.36869,2.39162 0.94131,1.52821 3.7801,0.98533 3.7801,-0.72288 z m 104.18273,-21.35846 c -2.46743,-7.43969 -7.02265,-14.67757 -12.18222,-19.3566 -3.45365,-3.13195 -13.91942,-8.70882 -18.35859,-9.78266 -2.32651,-0.56279 -3.08008,-1.42301 -3.08008,-3.51597 0,-2.71246 -0.14019,-2.75619 -6.64875,-2.07361 l -6.64873,0.69727 -0.99501,-3.80501 c -0.99428,-3.80226 -0.99937,-3.80473 -7.07161,-3.42001 -3.34214,0.21175 -6.52155,0.80991 -7.06536,1.32924 -1.97131,1.88256 0.35071,4.18022 5.55285,5.49455 7.63206,1.92827 18.10372,6.53443 23.97123,10.54415 7.0119,4.79179 19.13076,16.59687 27.30903,26.60196 7.80552,9.54906 9.06663,8.89321 5.21724,-2.71331 z m 47.0212,-3.87351 c 0,-2.71965 -2.80216,-3.83459 -4.49466,-1.78839 -1.64509,1.98892 -0.50312,3.9158 2.32072,3.9158 1.3863,0 2.17394,-0.77078 2.17394,-2.12741 z m -10.64028,-4.6155 c -0.38072,-0.61809 -1.16647,-1.1238 -1.74614,-1.1238 -0.57966,0 -1.05393,0.50571 -1.05393,1.1238 0,0.6181 0.78576,1.12382 1.74615,1.12382 0.96036,0 1.43464,-0.50572 1.05392,-1.12382 z m 1.81772,-15.31896 c -1.76953,-5.25918 -3.5322,-7.79092 -8.73739,-12.54936 -9.39617,-8.58977 -24.54816,-21.41119 -31.92971,-27.01854 -6.7876,-5.15618 -24.5557,-14.789748 -27.27812,-14.789748 -3.11559,0 -1.61111,2.213605 3.12587,4.599248 7.2742,3.66343 9.88277,6.47963 9.0576,9.77849 -0.66815,2.67115 -0.52781,2.75796 3.29513,2.03836 4.85662,-0.91418 6.68493,1.08759 2.46402,2.6978 -5.48852,2.09377 -2.62017,3.9563 5.43414,3.52859 6.25826,-0.33233 7.57148,-0.0842 8.19593,1.54858 0.50288,1.31494 -0.12642,2.60276 -1.944,3.97842 -2.44234,1.84848 -2.50493,2.10444 -0.68592,2.8048 1.10093,0.42391 3.77277,0.48234 5.93744,0.12986 2.16466,-0.35248 4.6627,-0.36096 5.55121,-0.0188 2.7284,1.05053 1.79144,3.58337 -1.46463,3.9593 -1.83364,0.21169 -3.08008,1.03776 -3.08008,2.0413 0,1.31369 1.50847,1.68694 6.8345,1.69111 7.34388,0.005 10.52596,1.60056 10.52596,5.27534 0,1.823 -0.71338,2.16288 -4.20012,2.00115 -7.0421,-0.32667 -7.46257,-0.20447 -5.88015,1.70867 0.86723,1.04846 3.35368,1.692 6.57732,1.70229 8.28756,0.0265 15.28586,4.94272 8.32947,5.85136 -2.87655,0.37575 -2.71689,0.53677 1.86107,1.87699 2.75416,0.80627 5.99985,2.16333 7.21263,3.01566 1.21277,0.85233 2.38719,1.36696 2.6098,1.1436 0.22259,-0.22336 -0.59279,-3.37086 -1.81197,-6.99444 z m 52.11786,0.19764 c -1.44536,-3.77926 -20.89473,-9.81729 -20.89473,-6.48674 0,1.13942 5.64875,3.82255 14.00038,6.65015 7.2841,2.4662 7.89448,2.45172 6.89435,-0.16346 z m -85.85642,-5.5155 c 0,-3.62708 -27.66565,-25.82567 -31.44711,-25.2328 -2.23723,0.35079 0.92315,3.08296 15.36007,13.27894 2.18798,1.54526 6.32464,5.13688 9.19258,7.98137 5.65777,5.61152 6.89446,6.32409 6.89446,3.97249 z m -199.97301,-1.76185 c 0.8283,-1.34476 -1.27865,-2.67717 -2.7705,-1.75205 -1.2526,0.77677 -0.43028,2.79823 1.13829,2.79823 0.54331,0 1.27781,-0.4708 1.63221,-1.04618 z m 269.66709,-22.02017 c 0.0825,-1.07136 -1.99997,-2.35847 -8.52803,-5.27113 -4.88047,-2.17756 -3.68834,-3.62859 3.49434,-4.2532 l 6.46147,-0.56191 -0.37886,-3.93336 c -0.79399,-8.242998 -8.3733,-26.379668 -15.60838,-37.349595 -3.17677,-4.81664 -8.09983,-7.961292 -10.8225,-6.912964 -2.47821,0.954182 -2.17577,2.350276 0.95503,4.40859 3.18482,2.093813 4.52197,4.955649 3.01974,6.462962 -0.67711,0.679375 -3.45692,-0.378671 -7.5969,-2.891536 -12.31965,-7.477704 -20.93846,-7.972923 -33.44924,-1.921942 -6.78983,3.28398 -12.7291,8.348202 -11.37919,9.702665 0.3981,0.399445 7.18359,1.633144 15.07885,2.741539 15.32253,2.151062 37.52945,6.944396 42.32087,9.1349 2.5182,1.15124 2.81624,1.818559 2.22489,4.981385 -0.59004,3.155766 -0.21838,3.996597 2.73487,6.187426 1.87973,1.39442 3.25302,3.03102 3.05175,3.63686 -0.20126,0.60584 -2.78704,1.24264 -5.74616,1.41515 -6.45271,0.37616 -13.88109,4.85568 -14.04991,8.47249 -0.0408,0.8726 9.07564,3.65782 19.31212,5.90021 7.6489,1.67556 8.77985,1.68208 8.90524,0.0515 z M 282.55712,110.25867 c -0.25205,-0.77262 -3.16419,-2.07762 -6.47142,-2.89996 -3.30722,-0.82237 -7.24306,-2.46596 -8.74631,-3.65242 -1.50326,-1.18646 -3.96152,-2.15719 -5.46278,-2.15719 -1.50129,0 -4.8354,-1.2268 -7.40915,-2.7262 -2.57377,-1.49943 -7.95565,-3.550491 -11.95975,-4.557957 -4.00411,-1.007465 -16.10041,-4.796266 -26.88069,-8.419567 -10.7803,-3.6233 -25.64867,-7.883199 -33.04087,-9.466451 -35.82155,-7.672196 -47.37727,-8.136567 -56.31146,-2.262855 -4.02512,2.646281 -1.0546,4.038662 5.40739,2.534648 8.89346,-2.069967 32.90523,0.606703 56.7031,6.320838 6.66678,1.600772 29.25787,8.677381 50.20242,15.725812 37.00489,12.453172 44.9413,14.539972 43.96952,11.561302 z m 19.4288,-48.095482 c 18.37097,-2.816136 36.33097,-6.48455 40.1542,-8.201676 5.30006,-2.3804 -11.23598,-2.164836 -25.66873,0.334634 -16.84982,2.918029 -28.15369,2.965755 -34.34449,0.144989 -6.50275,-2.962901 -7.0095,-4.385431 -2.88088,-8.086824 4.57036,-4.097423 9.27745,-5.265107 24.86329,-6.167838 22.79574,-1.320305 18.78729,-4.412016 -4.74294,-3.658204 -11.33759,0.363213 -13.29923,0.746065 -19.33769,3.774237 -6.44466,3.231864 -11.76032,8.904839 -11.76032,12.550851 0,1.712658 2.79207,3.02462 9.5092,4.46829 3.26376,0.701456 4.86611,1.793993 5.94127,4.051004 0.80972,1.699778 1.87523,3.090485 2.36777,3.090485 0.49258,0 7.64725,-1.034978 15.89932,-2.299959 z m -67.5456,-15.968327 c 0.64191,-0.776099 1.52156,-2.827996 1.95475,-4.559802 1.05443,-4.21545 4.21689,-5.999782 12.2728,-6.924606 7.68643,-0.882414 11.7603,-3.034966 11.7603,-6.213926 0,-3.703443 -4.74357,-3.904971 -14.97464,-0.636185 -6.64733,2.123813 -9.70599,3.69847 -10.61433,5.464514 -1.52141,2.957974 -4.65181,11.907114 -4.65181,13.298533 0,1.475767 2.92129,1.181423 4.25293,-0.428528 z M 198.82657,360.49512 c 0,-1.98458 2.41115,-1.63897 3.10342,0.44484 0.24383,0.734 -0.35469,1.33454 -1.33004,1.33454 -0.97534,0 -1.77338,-0.80072 -1.77338,-1.77938 z m 108.26949,-43.92249 c -2.667,-2.67603 1.0284,-3.50019 4.35938,-0.97224 2.0933,1.58863 2.06656,1.65129 -0.7193,1.68571 -1.59137,0.0198 -3.22941,-0.30139 -3.64008,-0.71347 z m -115.54968,-3.65722 c -2.46407,-0.41452 -6.86513,-2.16397 -9.78013,-3.88766 -2.91502,-1.7237 -8.45917,-3.85803 -12.32032,-4.74294 -9.54638,-2.18787 -13.05186,-3.72686 -14.44705,-6.34264 -2.15466,-4.03962 0.60439,-4.95072 6.31946,-2.08683 3.89064,1.94966 6.10742,2.37609 9.42679,1.8134 4.72517,-0.80101 13.7874,2.22103 26.12139,8.71087 10.61584,5.5858 8.01633,8.77929 -5.32014,6.5358 z m 64.51022,-8.38622 c -0.9915,-1.19872 -0.8947,-1.70504 0.42288,-2.21236 1.01153,-0.38946 1.70862,-2.04777 1.70862,-4.0646 0,-4.22786 2.08493,-4.42874 6.37772,-0.61453 3.08099,2.7375 3.0952,2.80557 0.72602,3.47535 -1.32907,0.37574 -2.66793,1.64785 -2.97522,2.82691 -0.65127,2.49887 -4.38945,2.85074 -6.26002,0.58923 z m -112.43754,-8.13785 c -1.92324,-1.92974 -0.62216,-3.79345 2.64828,-3.79345 2.67391,0 3.35883,0.43895 3.06863,1.96666 -0.38221,2.01218 -4.28822,3.2603 -5.71691,1.82679 z m -56.03188,-4.52579 c -1.378233,-1.38289 -0.798528,-3.76294 0.916523,-3.76294 1.866255,0 2.099057,0.96917 0.746371,3.10739 -0.494669,0.78189 -1.242959,1.07691 -1.662894,0.65555 z m 43.03442,-0.29527 c -2.31669,-1.47189 -0.5989,-4.59148 2.52828,-4.59148 2.78627,0 4.12128,1.72752 3.25675,4.2143 -0.56497,1.62513 -3.51778,1.81765 -5.78503,0.37718 z m -10.00525,-7.59073 c 0.21726,-1.14326 1.55037,-2.22336 2.99936,-2.43015 2.01932,-0.28817 2.51995,0.0926 2.21717,1.68573 -0.21727,1.14327 -1.55036,2.22338 -2.99936,2.43015 -2.01932,0.28818 -2.51995,-0.0923 -2.21717,-1.68573 z m 26.68889,-2.61984 c -2.61442,-2.62326 -2.94628,-5.61908 -0.62248,-5.61908 2.48986,0 7.81581,5.06554 6.89602,6.55884 -1.20885,1.96254 -3.76221,1.58007 -6.27354,-0.93976 z m -40.07347,-3.09049 c -4.50163,-5.74756 -6.96776,-10.83083 -6.96776,-14.36213 0,-1.62505 -1.207451,-6.07518 -2.683236,-9.8892 -1.475773,-3.81402 -2.99741,-8.32529 -3.381416,-10.02507 -0.384018,-1.69976 -1.086125,-3.0905 -1.560238,-3.0905 -1.285215,0 -7.624436,11.15191 -9.210963,16.20383 -0.760624,2.42207 -2.28691,5.96209 -3.391718,7.86672 -1.10482,1.90463 -2.353809,5.3594 -2.775537,7.67726 -0.919846,5.0554 -2.757562,5.59351 -2.757562,0.80743 0,-1.8738 -1.06148,-6.55169 -2.358846,-10.39531 -1.918834,-5.68478 -2.199167,-8.24623 -1.502828,-13.73131 0.470812,-3.70858 0.946684,-11.04148 1.057483,-16.29533 0.196669,-9.32603 1.81853,-20.73812 3.134967,-22.05901 0.36192,-0.36314 1.365511,1.03799 2.230186,3.11363 0.864697,2.07561 2.417637,4.47741 3.450989,5.33728 1.073414,0.89325 1.610007,2.41334 1.251719,3.54601 -0.701433,2.21743 3.364355,5.62629 10.057114,8.43218 3.886078,1.62919 4.103829,1.58752 7.025431,-1.34395 l 3.015055,-3.02524 -4.54407,-1.93641 c -8.007928,-3.41247 -11.690954,-11.47383 -8.21741,-17.98613 1.864485,-3.49563 2.875738,-2.57045 4.333251,3.9644 1.405858,6.30335 6.215494,12.96671 9.359359,12.96671 0.89816,0 3.97204,-2.06586 6.83083,-4.59078 2.85881,-2.52493 5.19783,-4.2973 5.19783,-3.93862 0,0.35866 -3.52809,5.31487 -7.84021,11.01377 -4.31211,5.69888 -7.84022,10.95719 -7.84022,11.6851 0,2.2313 2.99798,2.68777 17.65256,2.68777 7.76008,0 15.69556,0.57555 17.63436,1.27901 3.0367,1.1018 4.57576,0.85727 11.10771,-1.76475 4.17042,-1.67408 7.81959,-2.80597 8.10926,-2.51533 0.28967,0.29065 -1.8802,3.88546 -4.8219,7.9885 -4.98023,6.94634 -6.14202,7.84887 -16.87119,13.10638 -12.03147,5.89566 -16.28016,9.77851 -17.70729,16.1826 -1.98739,8.91816 -2.33234,9.07011 -7.01571,3.09049 z m 9.8436,-23.34799 c 1.3635,-3.59839 3.83316,-4.55611 7.46606,-2.89526 2.90068,1.32611 5.96338,0.1305 5.96338,-2.32805 0,-2.26114 -8.3296,-4.5641 -14.27929,-3.94796 -3.24241,0.33578 -7.46854,0.15781 -9.39141,-0.39555 -3.58885,-1.03275 -7.69014,0.21887 -7.69014,2.34685 0,0.60544 1.67151,2.93086 3.71443,5.16763 3.37281,3.6928 3.95447,3.93794 6.32442,2.66529 2.19811,-1.18037 2.76957,-1.11538 3.6214,0.41193 1.45757,2.61334 3.03609,2.23456 4.27115,-1.02488 z m -12.82775,-44.612 c -3.398,-4.86772 -1.43877,-17.16426 3.33516,-20.93214 4.11174,-3.2452 3.54195,-4.99264 -1.43862,-4.412 -2.31006,0.26931 -4.93812,0.70172 -5.84016,0.9609 -1.272863,0.36573 -1.668918,-0.78688 -1.768959,-5.14784 -0.07081,-3.09049 0.330776,-6.22696 0.892574,-6.96992 0.561809,-0.74297 0.693855,-2.38654 0.293444,-3.65241 -0.591856,-1.87107 -0.242555,-2.29693 1.867511,-2.27689 3.44149,0.0328 12.01614,3.99314 15.30488,7.06894 1.44597,1.35235 3.71271,4.4817 5.03719,6.95409 l 2.40811,4.49527 0.58604,-6.18098 0.58606,-6.18099 1.49825,6.20673 c 1.30151,5.3916 1.2692,6.75679 -0.24594,10.39529 -1.16156,2.78938 -2.46814,4.18858 -3.91132,4.18858 -1.57772,0 -2.8488,1.68519 -4.67346,6.19606 -2.45624,6.07222 -7.62201,11.78499 -10.6566,11.78499 -0.84183,0 -2.3152,-1.12396 -3.27416,-2.49768 z m 7.21668,-15.01512 c 0,-1.98459 -2.41114,-1.63896 -3.10341,0.44484 -0.24385,0.73401 0.35468,1.33454 1.33004,1.33454 0.97536,0 1.77337,-0.80071 1.77337,-1.77938 z m -31.360813,7.63145 c 0,-1.76388 10.396902,-10.34733 12.53344,-10.34733 0.459107,0 0.453693,1.03349 -0.01165,2.29669 -0.849359,2.30381 -12.521426,9.80835 -12.521426,8.05064 z m 49.281273,-41.88052 c 0,-0.65457 0.50403,-0.87759 1.12005,-0.49559 0.61602,0.38201 1.12002,0.91757 1.12002,1.19014 0,0.27258 -0.504,0.49559 -1.12002,0.49559 -0.61602,0 -1.12005,-0.53556 -1.12005,-1.19014 z"
       id="path1" /></g></svg>