<?xml version="1.0" encoding="UTF-8" standalone="no"?>
<!-- Created with Inkscape (http://www.inkscape.org/) -->

<svg
   width="511.50058"
   height="420.63113"
   viewBox="0 0 511.50058 420.63113"
   version="1.1"
   id="svg5"
   sodipodi:docname="prototype2-big-outline.svg"
   inkscape:export-filename="prototype3-light.svg"
   inkscape:export-xdpi="96"
   inkscape:export-ydpi="96"
   xmlns:inkscape="http://www.inkscape.org/namespaces/inkscape"
   xmlns:sodipodi="http://sodipodi.sourceforge.net/DTD/sodipodi-0.dtd"
   xmlns="http://www.w3.org/2000/svg"
   xmlns:svg="http://www.w3.org/2000/svg">
  <sodipodi:namedview
     id="namedview3946"
     pagecolor="#505050"
     bordercolor="#eeeeee"
     borderopacity="1"
     inkscape:showpageshadow="0"
     inkscape:pageopacity="0"
     inkscape:pagecheckerboard="0"
     inkscape:deskcolor="#505050"
     showgrid="false" />
  <defs
     id="defs2" />
  <g
     id="layer1"
     transform="matrix(0.99035805,0,0,0.99035805,-0.2669341,-0.27734583)">
    <g
       id="g1652"
       style="stroke-width:1;stroke-dasharray:none"
       transform="matrix(0.99744381,0,0,0.99280926,2.6597785,4.7094225)"
       inkscape:label="icon">
      <g
         id="g8220"
         inkscape:label="outlight"
         transform="matrix(1.0025904,0,0,1.0025904,-2.6737406,-3.3487028)"
         style="stroke:#131313;stroke-opacity:1">
        <path
           id="path8213"
           style="fill:#5ea7ab;fill-opacity:1;stroke:#131313;stroke-width:2.99395;stroke-linecap:square;stroke-linejoin:round;stroke-dasharray:none;stroke-opacity:1;paint-order:normal"
           d="m 255.56496,171.14541 v 29.74254 L 2.3838754,351.87347 v -29.74254 z" />
        <path
           id="path8196"
           style="fill:#e96b66;fill-opacity:1;stroke:#131313;stroke-width:2.99395;stroke-linecap:square;stroke-linejoin:round;stroke-dasharray:none;stroke-opacity:1;paint-order:normal"
           d="m 255.56496,134.70648 v 29.74254 L 2.3838754,315.43454 V 285.692 Z" />
        <path
           id="path8210"
           style="fill:#f9f5d7;fill-opacity:1;stroke:#131313;stroke-width:2.99387;stroke-linecap:square;stroke-linejoin:round;stroke-dasharray:none;stroke-opacity:1;paint-order:normal"
           d="M 255.56496,98.183875 V 127.92642 L 2.3838754,278.91194 V 249.1694 Z" />
      </g>
      <g
         id="g2395"
         transform="matrix(1.0003752,0,0,1.0003752,-0.12125864,-32.945016)"
         style="stroke-width:0.999625;stroke-dasharray:none"
         inkscape:label="path">
        <g
           id="g1660"
           style="fill:#131313;fill-opacity:1;stroke:#131313;stroke-width:6.07183;stroke-dasharray:none;stroke-opacity:1"
           inkscape:label="outline">
          <path
             id="path1654"
             style="opacity:1;fill:#131313;fill-opacity:1;stroke:#131313;stroke-width:6.07183;stroke-dasharray:none;stroke-opacity:1"
             d="m 140.55702,209.15002 134.33833,232.68083 a 2.8867515,2.8867515 0 0 1 -2.5,4.33013 H 3.7186711 A 2.8867512,2.8867512 0 0 1 1.2186712,441.83085 L 135.55702,209.15002 a 2.8867513,2.8867513 0 0 1 5,0 z" />
          <path
             id="path1656"
             style="opacity:1;fill:#131313;fill-opacity:1;stroke:#131313;stroke-width:6.07183;stroke-dasharray:none;stroke-opacity:1"
             d="m 363.88397,197.69573 c 39.78576,68.90936 104.94397,181.76671 144.72541,250.67182 1.38068,2.39147 0.26137,4.33021 -2.50005,4.33027 -79.56505,0.002 -209.8815,0.002 -289.45085,0 -2.76142,-6e-5 -3.88063,-1.93874 -2.49983,-4.33015 39.78581,-68.90505 104.94405,-181.7624 144.72545,-250.67182 1.38062,-2.39151 3.61914,-2.39157 4.99987,-1.2e-4 z" />
          <path
             id="path1658"
             style="opacity:1;fill:#131313;fill-opacity:1;stroke:#131313;stroke-width:6.07183;stroke-linecap:square;stroke-linejoin:miter;stroke-dasharray:none;stroke-opacity:1;paint-order:fill markers stroke"
             d="M 251.45139,35.095808 146.05705,217.64885 246.48622,391.59811 351.88057,209.04505 Z" />
        </g>
        <path
           id="path2389"
           style="opacity:1;fill:#458487;fill-opacity:1;stroke:#000000;stroke-width:0;stroke-dasharray:none"
           d="m 140.55702,209.15002 134.33833,232.68083 a 2.8867515,2.8867515 0 0 1 -2.5,4.33013 H 3.7186711 A 2.8867512,2.8867512 0 0 1 1.2186712,441.83085 L 135.55702,209.15002 a 2.8867513,2.8867513 0 0 1 5,0 z" />
        <path
           id="path2391"
           style="opacity:1;fill:#cd241d;fill-opacity:1;stroke:#cc241d;stroke-width:0;stroke-dasharray:none;stroke-opacity:1"
           d="m 363.88397,197.69573 c 39.78576,68.90936 104.94397,181.76671 144.72541,250.67182 1.38068,2.39147 0.26137,4.33021 -2.50005,4.33027 -79.56505,0.002 -209.8815,0.002 -289.45085,0 -2.76142,-6e-5 -3.88063,-1.93874 -2.49983,-4.33015 39.78581,-68.90505 104.94405,-181.7624 144.72545,-250.67182 1.38062,-2.39151 3.61914,-2.39157 4.99987,-1.2e-4 z" />
        <path
           id="path2393"
           style="opacity:1;fill:#fbf1c6;fill-opacity:1;stroke:#fbf1c7;stroke-width:0;stroke-linecap:square;stroke-linejoin:miter;stroke-dasharray:none;stroke-opacity:1;paint-order:fill markers stroke"
           d="M 251.45139,35.095808 146.05705,217.64885 246.48622,391.59811 351.88057,209.04505 Z" />
      </g>
      <g
         id="g8223"
         inkscape:label="inlight"
         transform="matrix(1.0025904,0,0,1.0025904,-2.6737406,-3.3487028)"
         style="fill:#fcf3d4;fill-opacity:1">
        <path
           id="rect5723"
           style="fill:#fcf3d4;fill-opacity:1;stroke:#131313;stroke-width:4.24731;stroke-linecap:square;stroke-linejoin:round;stroke-dasharray:none;stroke-opacity:1;paint-order:normal"
           d="M 260.46911,196.76622 V 256.6234 L 513.65148,421.05266 V 361.19548 Z" />
      </g>
    </g>
  </g>
</svg>
