<?xml version="1.0" encoding="UTF-8" standalone="no"?>
<!-- Created with Inkscape (http://www.inkscape.org/) -->

<svg
   width="348.11566mm"
   height="159.1366mm"
   viewBox="0 0 348.11566 159.13659"
   version="1.1"
   id="svg5"
   xml:space="preserve"
   xmlns="http://www.w3.org/2000/svg"
   xmlns:svg="http://www.w3.org/2000/svg"><defs
     id="defs2" /><g
     id="layer1"
     transform="translate(-13.5,-13.500001)"><g
       id="g1678"
       transform="translate(-68.44224,-161.63687)"><path
         id="rect3368"
         style="fill:#b18cda;fill-opacity:1;stroke-width:0.0433618"
         d="m 90.251811,270.72865 c -4.603672,0 -8.309571,3.70641 -8.309571,8.31009 v 3.60598 c 0,4.60366 3.705899,8.30957 8.309571,8.30957 H 273.40187 l 5.2e-4,-0.0403 2.16782,-5.54488 2.9962,-4.55683 5.1971,-2.9316 3.72071,-0.75551 4.95525,1.18132 3.93361,3.19929 1.80247,4.12326 2.19935,5.19297 0.0279,0.13229 h 84.00314 l 0.45734,-0.59893 2.01383,-6.17947 -0.79892,-5.65857 -3.81062,-4.98626 -4.51911,-2.80241 z m 326.038499,0 0.032,4.42919 -0.19121,8.13904 -3.02307,7.65741 h 8.63979 c 4.60366,0 8.31008,-3.70591 8.31008,-8.30957 v -3.60598 c 0,-4.60368 -3.70642,-8.31009 -8.31008,-8.31009 z" /><path
         id="rect2884"
         style="display:inline;fill:#b18cda;fill-opacity:1;stroke:none;stroke-width:3;stroke-dasharray:none;stroke-opacity:1"
         d="m 222.96655,216.11617 9.32513,-3.5647 9.74673,-3.27391 9.3469,-2.46633 8.93404,-1.41629 20.81306,-5.19215 27.74063,-6.85598 16.9765,-1.82053 18.81827,-0.13083 13.81655,1.2333 10.62198,1.94641 12.5612,4.33866 5.97598,3.08581 5.34866,4.07142 5.75518,5.09785 7.02706,9.60802 3.72835,9.00317 0.79077,7.24639 -0.63121,7.99243 -4.05691,9.2331 1.88562,3.11287 3.96307,3.49699 2.11962,4.81981 1.20833,4.04344 0.0394,5.4205 -0.18322,7.84855 -3.13736,7.94706 -4.65716,7.86276 -3.59266,6.07563 -4.16772,4.68859 -5.21911,4.84854 -5.51653,3.90081 -12.82941,6.82511 -6.57177,3.54451 -8.1262,2.40867 -17.56656,3.17462 -12.45493,0.003 -11.14425,-1.63717 -8.1296,-2.15319 -11.33469,-4.74938 -11.41832,-8.01499 -5.41986,-4.67618 -4.19333,-5.59561 -3.02655,-4.79406 -1.31428,-6.18579 0.0808,-5.25915 2.01083,-5.14601 2.71081,-4.12215 4.67388,-2.63547 3.16535,-0.64424 4.2996,1.02619 3.38572,2.75457 1.65266,3.78121 2.13929,5.05106 1.55562,7.42846 2.26319,5.84976 2.67263,2.77483 7.15992,5.90806 8.18094,2.90063 8.0311,0.37097 12.21678,-0.56313 9.1256,-1.22441 6.49061,-1.57871 6.2569,-2.55355 5.06373,-2.1627 6.87129,-5.11655 6.12792,-5.35472 5.25696,-6.88878 2.20123,-6.75301 -0.90216,-6.39131 -4.2175,-5.51672 -10.42672,-6.46671 -18.97203,-2.48609 -21.37339,0.039 -174.04696,-0.46679 -6.96212,1.7666 -10.83449,0.79184 -7.00853,-3.40939 -6.89371,-4.43138 -8.68062,2.03745 -8.29513,2.94277 -8.38122,1.28584 -4.179161,-5.68005 1.28475,-10.86652 5.940121,-7.34337 8.13647,-3.0691 15.18792,-1.11226 6.19939,-2.4124 -0.70579,-4.20938 -5.67874,-6.86282 -5.64439,-4.6992 -4.05136,-5.38319 -6.2074,-3.5467 6.48536,-2.78302 8.33413,-0.57849 7.24412,0.15131 6.67931,1.11193 5.63165,-3.25939 6.75021,-5.68083 9.13987,-3.38186 9.35881,-2.44531 2.43046,-2.3329 1.96294,-3.56432 3.4691,-4.78322 5.00271,-4.58685 4.4147,-1.55056 2.77359,1.25283 0.76069,6.0265 1.64007,8.43716 2.19223,5.13961 5.95526,3.69574 7.41018,4.93752 3.59014,2.73074 1.70813,4.14804 1.03205,3.8295 1.12936,3.23424 z" /></g></g></svg>
